<svg width="100px" height="100px" viewBox="0 0 100 100" version="1.1" xmlns="http://www.w3.org/2000/svg" xmlns:xlink="http://www.w3.org/1999/xlink">
    <g id="Page-1" stroke="none" stroke-width="1" fill="none" fill-rule="evenodd">
        <path d="M50,100 C22.3857625,100 0,77.6142375 0,50 C0,22.3857625 22.3857625,0 50,0 C77.6142375,0 100,22.3857625 100,50 C100,77.6142375 77.6142375,100 50,100 Z M21,79 L60.3257576,60.3257576 L79,21 L39.6742424,39.6742424 L21,79 Z M50,44 C53.4285714,44 56,46.7857143 56,50 C56,53.2142857 53.2142857,56 50,56 C46.7857143,56 44,53.2142857 44,50 C44,46.7857143 46.5714286,44 50,44 Z" id="Combined-Shape" fill="#000000"></path>
    </g>
</svg>
