<svg width="110" height="110" xmlns="http://www.w3.org/2000/svg"><path d="M55 110C24.624 110 0 85.376 0 55S24.624 0 55 0s55 24.624 55 55-24.624 55-55 55zm26.969-79.62a2.318 2.318 0 00-2.166-.193L64.61 36.616l-17.473-6.468a1.935 1.935 0 00-.247-.057 1.795 1.795 0 00-.32-.085 1.962 1.962 0 00-.236 0 1.683 1.683 0 00-.292 0c-.086 0-.166.04-.252.057a2.39 2.39 0 00-.286.085h-.052L29.41 36.933a2.261 2.261 0 00-1.41 2.12V77.5c0 .76.388 1.47 1.031 1.889.375.243.813.373 1.26.373.312-.002.62-.063.906-.181l15.194-6.429 17.474 6.469h.068c.235.086.483.134.734.14.277-.005.55-.06.807-.163h.098l16.041-6.785A2.26 2.26 0 0083 70.715V32.268c0-.76-.388-1.47-1.031-1.888zm-48.73 10.582l11.348-4.85v33.56l-11.349 4.852V40.962zm15.713-4.85l13.969 5.049v33.363l-13.969-5.05V36.11zm29.683 33.56l-11.35 4.852V40.962l11.35-4.85v33.56z" fill="#000" fill-rule="evenodd"/></svg>
