<svg width="100px" height="100px" viewBox="0 0 100 100" version="1.1" xmlns="http://www.w3.org/2000/svg" xmlns:xlink="http://www.w3.org/1999/xlink">
    <g id="Page-1" stroke="none" stroke-width="1" fill="none" fill-rule="evenodd">
        <path d="M50,100 C22.3857625,100 0,77.6142375 0,50 C0,22.3857625 22.3857625,0 50,0 C77.6142375,0 100,22.3857625 100,50 C100,77.6142375 77.6142375,100 50,100 Z M26,74 L58.5454545,58.5454545 L74,26 L41.4545455,41.4545455 L26,74 Z M50,44.9090909 C52.9090909,44.9090909 55.0909091,47.2727273 55.0909091,50 C55.0909091,52.7272727 52.7272727,55.0909091 50,55.0909091 C47.2727273,55.0909091 44.9090909,52.7272727 44.9090909,50 C44.9090909,47.2727273 47.0909091,44.9090909 50,44.9090909 Z" id="Combined-Shape" fill="#000000"></path>
    </g>
</svg>
